<mxfile host="65bd71144e">
    <diagram id="gYoxP9vWYiIPN62YEr7-" name="PÃ¡gina-1">
        <mxGraphModel dx="820" dy="516" grid="1" gridSize="10" guides="1" tooltips="1" connect="1" arrows="1" fold="1" page="1" pageScale="1" pageWidth="827" pageHeight="1169" math="0" shadow="0">
            <root>
                <mxCell id="0"/>
                <mxCell id="1" parent="0"/>
                <mxCell id="2" value="GUI_CLIENTE" style="shape=umlLifeline;perimeter=lifelinePerimeter;whiteSpace=wrap;html=1;container=1;collapsible=0;recursiveResize=0;outlineConnect=0;" vertex="1" parent="1">
                    <mxGeometry x="220" y="80" width="100" height="440" as="geometry"/>
                </mxCell>
                <mxCell id="3" value="CLIENTE" style="shape=umlLifeline;perimeter=lifelinePerimeter;whiteSpace=wrap;html=1;container=1;collapsible=0;recursiveResize=0;outlineConnect=0;lifelineDashed=0;" vertex="1" parent="1">
                    <mxGeometry x="40" y="80" width="100" height="470" as="geometry"/>
                </mxCell>
                <mxCell id="4" value="TICKET" style="shape=umlLifeline;perimeter=lifelinePerimeter;whiteSpace=wrap;html=1;container=1;collapsible=0;recursiveResize=0;outlineConnect=0;lifelineDashed=0;" vertex="1" parent="1">
                    <mxGeometry x="400" y="80" width="110" height="440" as="geometry"/>
                </mxCell>
                <mxCell id="26" style="edgeStyle=none;html=1;startArrow=none;" edge="1" parent="4" source="24" target="4">
                    <mxGeometry relative="1" as="geometry"/>
                </mxCell>
                <mxCell id="17" value="" style="rounded=0;dashed=0;" vertex="1" parent="4">
                    <mxGeometry x="50" y="90" width="10" height="280" as="geometry"/>
                </mxCell>
                <mxCell id="25" value="" style="html=1;verticalAlign=bottom;labelBackgroundColor=none;endArrow=block;endFill=1;dashed=1;" edge="1" parent="4">
                    <mxGeometry width="160" relative="1" as="geometry">
                        <mxPoint x="-134.5" y="110" as="sourcePoint"/>
                        <mxPoint x="45" y="110" as="targetPoint"/>
                    </mxGeometry>
                </mxCell>
                <mxCell id="24" value="se cargan datos , cambia estado" style="text;html=1;align=center;verticalAlign=middle;resizable=0;points=[];autosize=1;strokeColor=none;fillColor=none;" vertex="1" parent="4">
                    <mxGeometry x="-130" y="90" width="190" height="20" as="geometry"/>
                </mxCell>
                <mxCell id="43" value="" style="html=1;verticalAlign=bottom;labelBackgroundColor=none;endArrow=block;endFill=1;dashed=1;" edge="1" parent="4">
                    <mxGeometry width="160" relative="1" as="geometry">
                        <mxPoint x="-125" y="280" as="sourcePoint"/>
                        <mxPoint x="55" y="280" as="targetPoint"/>
                        <Array as="points"/>
                    </mxGeometry>
                </mxCell>
                <mxCell id="48" value="" style="html=1;verticalAlign=bottom;labelBackgroundColor=none;endArrow=block;endFill=1;dashed=1;" edge="1" parent="4" target="5">
                    <mxGeometry width="160" relative="1" as="geometry">
                        <mxPoint x="-129.5" y="310" as="sourcePoint"/>
                        <mxPoint x="50" y="310" as="targetPoint"/>
                    </mxGeometry>
                </mxCell>
                <mxCell id="5" value="GUI_OPERADOR" style="shape=umlLifeline;perimeter=lifelinePerimeter;whiteSpace=wrap;html=1;container=1;collapsible=0;recursiveResize=0;outlineConnect=0;" vertex="1" parent="1">
                    <mxGeometry x="550" y="80" width="110" height="440" as="geometry"/>
                </mxCell>
                <mxCell id="28" value="se notifica de un nuevo ticket" style="text;html=1;align=center;verticalAlign=middle;resizable=0;points=[];autosize=1;strokeColor=none;fillColor=none;" vertex="1" parent="5">
                    <mxGeometry x="-20" y="130" width="170" height="20" as="geometry"/>
                </mxCell>
                <mxCell id="36" value="" style="html=1;verticalAlign=bottom;labelBackgroundColor=none;endArrow=block;endFill=1;dashed=1;" edge="1" parent="5" target="4">
                    <mxGeometry width="160" relative="1" as="geometry">
                        <mxPoint x="55" y="210" as="sourcePoint"/>
                        <mxPoint x="-80" y="210" as="targetPoint"/>
                        <Array as="points">
                            <mxPoint x="-74.5" y="210"/>
                        </Array>
                    </mxGeometry>
                </mxCell>
                <mxCell id="54" value="" style="html=1;verticalAlign=bottom;labelBackgroundColor=none;endArrow=block;endFill=1;dashed=1;" edge="1" parent="5">
                    <mxGeometry width="160" relative="1" as="geometry">
                        <mxPoint x="60.5" y="360" as="sourcePoint"/>
                        <mxPoint x="-90" y="360" as="targetPoint"/>
                        <Array as="points">
                            <mxPoint x="-69" y="360"/>
                        </Array>
                    </mxGeometry>
                </mxCell>
                <mxCell id="6" value="OPERADOR" style="shape=umlLifeline;perimeter=lifelinePerimeter;whiteSpace=wrap;html=1;container=1;collapsible=0;recursiveResize=0;outlineConnect=0;lifelineDashed=0;" vertex="1" parent="1">
                    <mxGeometry x="690" y="80" width="100" height="440" as="geometry"/>
                </mxCell>
                <mxCell id="29" value="" style="html=1;verticalAlign=bottom;labelBackgroundColor=none;endArrow=block;endFill=1;dashed=1;" edge="1" parent="6">
                    <mxGeometry width="160" relative="1" as="geometry">
                        <mxPoint x="-100" y="150" as="sourcePoint"/>
                        <mxPoint x="50" y="150" as="targetPoint"/>
                    </mxGeometry>
                </mxCell>
                <mxCell id="38" value="" style="html=1;verticalAlign=bottom;labelBackgroundColor=none;endArrow=block;endFill=1;dashed=1;" edge="1" parent="6" target="3">
                    <mxGeometry width="160" relative="1" as="geometry">
                        <mxPoint x="50.5" y="230" as="sourcePoint"/>
                        <mxPoint x="-100" y="230" as="targetPoint"/>
                        <Array as="points">
                            <mxPoint x="-79" y="230"/>
                        </Array>
                    </mxGeometry>
                </mxCell>
                <mxCell id="49" value="" style="html=1;verticalAlign=bottom;labelBackgroundColor=none;endArrow=block;endFill=1;dashed=1;" edge="1" parent="6">
                    <mxGeometry width="160" relative="1" as="geometry">
                        <mxPoint x="-90" y="310" as="sourcePoint"/>
                        <mxPoint x="50" y="310" as="targetPoint"/>
                    </mxGeometry>
                </mxCell>
                <mxCell id="51" value="" style="html=1;verticalAlign=bottom;labelBackgroundColor=none;endArrow=block;endFill=1;dashed=1;" edge="1" parent="6" target="5">
                    <mxGeometry width="160" relative="1" as="geometry">
                        <mxPoint x="55" y="340" as="sourcePoint"/>
                        <mxPoint x="-80" y="340" as="targetPoint"/>
                        <Array as="points">
                            <mxPoint x="-74.5" y="340"/>
                        </Array>
                    </mxGeometry>
                </mxCell>
                <mxCell id="7" value="" style="html=1;verticalAlign=bottom;labelBackgroundColor=none;endArrow=block;endFill=1;dashed=1;" edge="1" parent="1" target="2">
                    <mxGeometry width="160" relative="1" as="geometry">
                        <mxPoint x="90" y="180" as="sourcePoint"/>
                        <mxPoint x="250" y="180" as="targetPoint"/>
                    </mxGeometry>
                </mxCell>
                <mxCell id="8" value="ingresa datos, consulta&amp;nbsp;" style="text;html=1;align=center;verticalAlign=middle;resizable=0;points=[];autosize=1;strokeColor=none;fillColor=none;" vertex="1" parent="1">
                    <mxGeometry x="110" y="160" width="140" height="20" as="geometry"/>
                </mxCell>
                <mxCell id="27" value="" style="html=1;verticalAlign=bottom;labelBackgroundColor=none;endArrow=block;endFill=1;dashed=1;" edge="1" parent="1" target="5">
                    <mxGeometry width="160" relative="1" as="geometry">
                        <mxPoint x="270" y="230" as="sourcePoint"/>
                        <mxPoint x="449.5" y="229.5" as="targetPoint"/>
                    </mxGeometry>
                </mxCell>
                <mxCell id="34" value="" style="html=1;verticalAlign=bottom;labelBackgroundColor=none;endArrow=block;endFill=1;dashed=1;" edge="1" parent="1" source="6" target="5">
                    <mxGeometry width="160" relative="1" as="geometry">
                        <mxPoint x="540" y="310" as="sourcePoint"/>
                        <mxPoint x="719.5" y="310" as="targetPoint"/>
                        <Array as="points">
                            <mxPoint x="610" y="270"/>
                        </Array>
                    </mxGeometry>
                </mxCell>
                <mxCell id="35" value="gestiona ticket()" style="text;html=1;align=center;verticalAlign=middle;resizable=0;points=[];autosize=1;strokeColor=none;fillColor=none;" vertex="1" parent="1">
                    <mxGeometry x="610" y="250" width="100" height="20" as="geometry"/>
                </mxCell>
                <mxCell id="37" value="cambia estado" style="text;html=1;align=center;verticalAlign=middle;resizable=0;points=[];autosize=1;strokeColor=none;fillColor=none;" vertex="1" parent="1">
                    <mxGeometry x="475" y="270" width="90" height="20" as="geometry"/>
                </mxCell>
                <mxCell id="39" value="notifica al cliente" style="text;html=1;align=center;verticalAlign=middle;resizable=0;points=[];autosize=1;strokeColor=none;fillColor=none;" vertex="1" parent="1">
                    <mxGeometry x="314" y="290" width="100" height="20" as="geometry"/>
                </mxCell>
                <mxCell id="40" value="" style="html=1;verticalAlign=bottom;labelBackgroundColor=none;endArrow=block;endFill=1;dashed=1;" edge="1" parent="1" source="3" target="2">
                    <mxGeometry width="160" relative="1" as="geometry">
                        <mxPoint x="750.5" y="320" as="sourcePoint"/>
                        <mxPoint x="99.5" y="320" as="targetPoint"/>
                        <Array as="points">
                            <mxPoint x="90" y="340"/>
                        </Array>
                    </mxGeometry>
                </mxCell>
                <mxCell id="41" value="reabre el ticket" style="edgeLabel;html=1;align=center;verticalAlign=middle;resizable=0;points=[];" vertex="1" connectable="0" parent="40">
                    <mxGeometry x="-0.15" y="4" relative="1" as="geometry">
                        <mxPoint as="offset"/>
                    </mxGeometry>
                </mxCell>
                <mxCell id="45" value="se cargan nueva solicitud, cambia estado" style="text;html=1;align=center;verticalAlign=middle;resizable=0;points=[];autosize=1;strokeColor=none;fillColor=none;" vertex="1" parent="1">
                    <mxGeometry x="220" y="340" width="240" height="20" as="geometry"/>
                </mxCell>
                <mxCell id="50" value="se notifica ticket reabierto" style="text;html=1;align=center;verticalAlign=middle;resizable=0;points=[];autosize=1;strokeColor=none;fillColor=none;" vertex="1" parent="1">
                    <mxGeometry x="495" y="370" width="150" height="20" as="geometry"/>
                </mxCell>
                <mxCell id="52" value="gestiona ticket()" style="text;html=1;align=center;verticalAlign=middle;resizable=0;points=[];autosize=1;strokeColor=none;fillColor=none;" vertex="1" parent="1">
                    <mxGeometry x="610" y="400" width="100" height="20" as="geometry"/>
                </mxCell>
                <mxCell id="55" value="cambia estado" style="text;html=1;align=center;verticalAlign=middle;resizable=0;points=[];autosize=1;strokeColor=none;fillColor=none;" vertex="1" parent="1">
                    <mxGeometry x="485" y="420" width="90" height="20" as="geometry"/>
                </mxCell>
                <mxCell id="56" value="" style="html=1;verticalAlign=bottom;labelBackgroundColor=none;endArrow=block;endFill=1;dashed=1;" edge="1" parent="1" source="6" target="3">
                    <mxGeometry width="160" relative="1" as="geometry">
                        <mxPoint x="750.5" y="320" as="sourcePoint"/>
                        <mxPoint x="99.5" y="320" as="targetPoint"/>
                        <Array as="points">
                            <mxPoint x="720" y="480"/>
                            <mxPoint x="610" y="480"/>
                            <mxPoint x="360" y="480"/>
                        </Array>
                    </mxGeometry>
                </mxCell>
                <mxCell id="57" value="Text" style="text;html=1;align=center;verticalAlign=middle;resizable=0;points=[];autosize=1;strokeColor=none;fillColor=none;" vertex="1" parent="1">
                    <mxGeometry x="330" y="460" width="40" height="20" as="geometry"/>
                </mxCell>
            </root>
        </mxGraphModel>
    </diagram>
</mxfile>